<svg width="292" height="72" viewBox="0 0 292 72" fill="none" xmlns="http://www.w3.org/2000/svg">
<path d="M1.41339 71.4783V59.6452H6.11374C6.95739 59.6452 7.67504 59.7822 8.2667 60.0561C8.85835 60.33 9.30757 60.7244 9.61435 61.2394C9.93209 61.7543 10.091 62.3734 10.091 63.0965C10.091 63.8197 9.93209 64.4442 9.61435 64.9701C9.30757 65.485 8.85835 65.885 8.2667 66.1698C7.67504 66.4547 6.95739 66.5971 6.11374 66.5971H2.39948V65.4138H6.06443C6.94096 65.4138 7.60383 65.2166 8.05304 64.8222C8.51322 64.4168 8.7433 63.8416 8.7433 63.0965C8.7433 62.3515 8.5187 61.7872 8.06948 61.4037C7.62026 61.0203 6.95191 60.8285 6.06443 60.8285H2.76104V71.4783H1.41339ZM15.9961 71.4783C15.9523 71.292 15.9195 71.0783 15.8975 70.8373C15.8866 70.5963 15.8811 70.2895 15.8811 69.917H15.7989V65.9069C15.7989 65.2714 15.651 64.8057 15.3552 64.5099C15.0703 64.2031 14.6047 64.0497 13.9582 64.0497C13.3228 64.0497 12.8133 64.1812 12.4298 64.4442C12.0573 64.6962 11.8491 65.0577 11.8053 65.5289H10.5398C10.5946 64.7181 10.9342 64.0826 11.5588 63.6224C12.1833 63.1623 12.9995 62.9322 14.0075 62.9322C15.0484 62.9322 15.8208 63.1787 16.3248 63.6717C16.8288 64.1648 17.0808 64.9043 17.0808 65.8904V69.917C17.0808 70.158 17.0973 70.41 17.1301 70.673C17.163 70.925 17.2068 71.1934 17.2616 71.4783H15.9961ZM13.1201 71.6426C12.2545 71.6426 11.5642 71.4344 11.0493 71.0181C10.5453 70.5908 10.2933 70.0101 10.2933 69.276C10.2933 68.5419 10.5453 67.9722 11.0493 67.5668C11.5533 67.1614 12.2874 66.8765 13.2515 66.7122L16.1769 66.2191V67.3038L13.4488 67.7311C12.8352 67.8297 12.3695 67.9941 12.0518 68.2242C11.7341 68.4543 11.5752 68.7884 11.5752 69.2267C11.5752 69.654 11.7176 69.9772 12.0025 70.1963C12.2983 70.4155 12.7311 70.525 13.3008 70.525C14.0349 70.525 14.6321 70.3607 15.0922 70.032C15.5634 69.6923 15.7989 69.2541 15.7989 68.7172L16.0126 69.8841C15.8373 70.4429 15.4921 70.8757 14.9772 71.1824C14.4732 71.4892 13.8541 71.6426 13.1201 71.6426ZM18.8325 71.4783V63.0965H20.0651V65.233H20.1473V71.4783H18.8325ZM20.1473 67.1066L19.9337 65.118C20.1309 64.4058 20.4815 63.8635 20.9855 63.491C21.4895 63.1184 22.0702 62.9322 22.7276 62.9322C23.0015 62.9322 23.1877 62.9541 23.2864 62.9979V64.2634C23.2316 64.2415 23.1549 64.2305 23.0563 64.2305C22.9577 64.2196 22.8371 64.2141 22.6947 64.2141C21.862 64.2141 21.2265 64.4661 20.7883 64.9701C20.361 65.4631 20.1473 66.1753 20.1473 67.1066ZM27.7583 71.6262C26.827 71.6262 26.1476 71.418 25.7203 71.0017C25.304 70.5743 25.0958 69.9608 25.0958 69.161V61.1408L26.4106 60.6477V69.1445C26.4106 69.6157 26.5311 69.9608 26.7722 70.1799C27.0132 70.399 27.4076 70.5086 27.9555 70.5086C28.1746 70.5086 28.3609 70.4977 28.5143 70.4757C28.6786 70.4429 28.8101 70.4045 28.9087 70.3607V71.4783C28.7991 71.5221 28.6403 71.555 28.4321 71.5769C28.2349 71.6097 28.0103 71.6262 27.7583 71.6262ZM23.3702 64.2141V63.0965H28.9087V64.2141H23.3702ZM35.8098 71.6426C34.9881 71.6426 34.265 71.4509 33.6404 71.0674C33.0159 70.6839 32.5283 70.1635 32.1777 69.5061C31.8381 68.8377 31.6683 68.0872 31.6683 67.2545C31.6683 66.4109 31.8436 65.6658 32.1942 65.0194C32.5448 64.373 33.0269 63.8635 33.6404 63.491C34.265 63.1184 34.9881 62.9322 35.8098 62.9322C36.6425 62.9322 37.3657 63.1184 37.9792 63.491C38.6037 63.8635 39.0858 64.373 39.4255 65.0194C39.7761 65.6658 39.9514 66.4109 39.9514 67.2545C39.9514 68.0872 39.7761 68.8377 39.4255 69.5061C39.0858 70.1635 38.6037 70.6839 37.9792 71.0674C37.3657 71.4509 36.6425 71.6426 35.8098 71.6426ZM35.8098 70.525C36.3796 70.525 36.8726 70.3881 37.289 70.1142C37.7053 69.8293 38.0285 69.4403 38.2586 68.9473C38.4887 68.4543 38.6037 67.8845 38.6037 67.2381C38.6037 66.2739 38.3463 65.5015 37.8313 64.9208C37.3273 64.3401 36.6535 64.0497 35.8098 64.0497C34.9771 64.0497 34.3033 64.3401 33.7883 64.9208C33.2734 65.5015 33.0159 66.2739 33.0159 67.2381C33.0159 67.8845 33.131 68.4543 33.361 68.9473C33.5911 69.4403 33.9143 69.8293 34.3307 70.1142C34.758 70.3881 35.251 70.525 35.8098 70.525ZM41.7507 71.4783V61.9132C41.7507 61.1463 41.9698 60.5491 42.4081 60.1218C42.8573 59.6945 43.5366 59.4809 44.446 59.4809C44.6651 59.4809 44.835 59.4918 44.9555 59.5137C45.087 59.5357 45.1965 59.563 45.2842 59.5959V60.6313C45.2075 60.6094 45.0979 60.5875 44.9555 60.5656C44.824 60.5437 44.6816 60.5327 44.5282 60.5327C44.0242 60.5327 43.6517 60.6587 43.4106 60.9107C43.1805 61.1627 43.0655 61.5188 43.0655 61.979V71.4783H41.7507ZM40.0251 64.2141V63.0965H45.1034V64.2141H40.0251ZM47.8722 71.4783L52.4411 59.6452H53.6244L49.1706 71.4783H47.8722ZM57.2729 71.4783L52.8191 59.6452H54.0846L58.6534 71.4783H57.2729ZM50.1402 66.6957H56.3197V67.879H50.1402V66.6957ZM59.7697 71.4783V59.6452H61.0845V71.4783H59.7697ZM63.6255 71.4783V61.9132C63.6255 61.1463 63.8447 60.5491 64.2829 60.1218C64.7322 59.6945 65.4115 59.4809 66.3208 59.4809C66.54 59.4809 66.7098 59.4918 66.8303 59.5137C66.9618 59.5357 67.0714 59.563 67.159 59.5959V60.6313C67.0823 60.6094 66.9728 60.5875 66.8303 60.5656C66.6988 60.5437 66.5564 60.5327 66.403 60.5327C65.899 60.5327 65.5265 60.6587 65.2855 60.9107C65.0554 61.1627 64.9403 61.5188 64.9403 61.979V71.4783H63.6255ZM61.8999 64.2141V63.0965H66.9782V64.2141H61.8999ZM72.866 71.4783C72.8221 71.292 72.7893 71.0783 72.7674 70.8373C72.7564 70.5963 72.7509 70.2895 72.7509 69.917H72.6687V65.9069C72.6687 65.2714 72.5208 64.8057 72.225 64.5099C71.9401 64.2031 71.4745 64.0497 70.8281 64.0497C70.1926 64.0497 69.6831 64.1812 69.2996 64.4442C68.9271 64.6962 68.7189 65.0577 68.6751 65.5289H67.4096C67.4644 64.7181 67.8041 64.0826 68.4286 63.6224C69.0531 63.1623 69.8694 62.9322 70.8774 62.9322C71.9182 62.9322 72.6907 63.1787 73.1947 63.6717C73.6987 64.1648 73.9507 64.9043 73.9507 65.8904V69.917C73.9507 70.158 73.9671 70.41 74 70.673C74.0328 70.925 74.0767 71.1934 74.1314 71.4783H72.866ZM69.9899 71.6426C69.1243 71.6426 68.4341 71.4344 67.9191 71.0181C67.4151 70.5908 67.1631 70.0101 67.1631 69.276C67.1631 68.5419 67.4151 67.9722 67.9191 67.5668C68.4231 67.1614 69.1572 66.8765 70.1214 66.7122L73.0467 66.2191V67.3038L70.3186 67.7311C69.705 67.8297 69.2394 67.9941 68.9216 68.2242C68.6039 68.4543 68.445 68.7884 68.445 69.2267C68.445 69.654 68.5874 69.9772 68.8723 70.1963C69.1681 70.4155 69.6009 70.525 70.1707 70.525C70.9047 70.525 71.5019 70.3607 71.9621 70.032C72.4332 69.6923 72.6687 69.2541 72.6687 68.7172L72.8824 69.8841C72.7071 70.4429 72.362 70.8757 71.847 71.1824C71.343 71.4892 70.724 71.6426 69.9899 71.6426ZM78.3085 71.4783V59.6452H79.6562V71.4783H78.3085ZM78.9988 71.4783V70.295H85.737V71.4783H78.9988ZM91.8159 71.4783C91.7721 71.292 91.7393 71.0783 91.7173 70.8373C91.7064 70.5963 91.7009 70.2895 91.7009 69.917H91.6187V65.9069C91.6187 65.2714 91.4708 64.8057 91.175 64.5099C90.8901 64.2031 90.4245 64.0497 89.778 64.0497C89.1426 64.0497 88.6331 64.1812 88.2496 64.4442C87.8771 64.6962 87.6689 65.0577 87.6251 65.5289H86.3596C86.4144 64.7181 86.754 64.0826 87.3786 63.6224C88.0031 63.1623 88.8193 62.9322 89.8273 62.9322C90.8682 62.9322 91.6406 63.1787 92.1446 63.6717C92.6486 64.1648 92.9006 64.9043 92.9006 65.8904V69.917C92.9006 70.158 92.9171 70.41 92.9499 70.673C92.9828 70.925 93.0266 71.1934 93.0814 71.4783H91.8159ZM88.9399 71.6426C88.0743 71.6426 87.384 71.4344 86.8691 71.0181C86.3651 70.5908 86.1131 70.0101 86.1131 69.276C86.1131 68.5419 86.3651 67.9722 86.8691 67.5668C87.3731 67.1614 88.1072 66.8765 89.0713 66.7122L91.9967 66.2191V67.3038L89.2686 67.7311C88.655 67.8297 88.1893 67.9941 87.8716 68.2242C87.5539 68.4543 87.395 68.7884 87.395 69.2267C87.395 69.654 87.5374 69.9772 87.8223 70.1963C88.1181 70.4155 88.5509 70.525 89.1206 70.525C89.8547 70.525 90.4519 70.3607 90.912 70.032C91.3832 69.6923 91.6187 69.2541 91.6187 68.7172L91.8324 69.8841C91.6571 70.4429 91.3119 70.8757 90.797 71.1824C90.293 71.4892 89.6739 71.6426 88.9399 71.6426ZM96.7801 71.4783L93.3124 63.0965H94.7258L97.6183 70.5908H97.0924L99.9685 63.0965H101.316L97.8484 71.4783H96.7801ZM107.039 71.4783C106.995 71.292 106.962 71.0783 106.94 70.8373C106.929 70.5963 106.924 70.2895 106.924 69.917H106.841V65.9069C106.841 65.2714 106.693 64.8057 106.398 64.5099C106.113 64.2031 105.647 64.0497 105.001 64.0497C104.365 64.0497 103.856 64.1812 103.472 64.4442C103.1 64.6962 102.892 65.0577 102.848 65.5289H101.582C101.637 64.7181 101.977 64.0826 102.601 63.6224C103.226 63.1623 104.042 62.9322 105.05 62.9322C106.091 62.9322 106.863 63.1787 107.367 63.6717C107.871 64.1648 108.123 64.9043 108.123 65.8904V69.917C108.123 70.158 108.14 70.41 108.173 70.673C108.205 70.925 108.249 71.1934 108.304 71.4783H107.039ZM104.163 71.6426C103.297 71.6426 102.607 71.4344 102.092 71.0181C101.588 70.5908 101.336 70.0101 101.336 69.276C101.336 68.5419 101.588 67.9722 102.092 67.5668C102.596 67.1614 103.33 66.8765 104.294 66.7122L107.219 66.2191V67.3038L104.491 67.7311C103.878 67.8297 103.412 67.9941 103.094 68.2242C102.777 68.4543 102.618 68.7884 102.618 69.2267C102.618 69.654 102.76 69.9772 103.045 70.1963C103.341 70.4155 103.774 70.525 104.343 70.525C105.077 70.525 105.675 70.3607 106.135 70.032C106.606 69.6923 106.841 69.2541 106.841 68.7172L107.055 69.8841C106.88 70.4429 106.535 70.8757 106.02 71.1824C105.516 71.4892 104.897 71.6426 104.163 71.6426ZM109.875 71.4783V59.6452H111.19V71.4783H109.875Z" fill="black"/>
<path d="M33.1612 9.49185C30.4966 8.12438 27.0478 7.14905 23.7347 7.14905C20.4216 7.14905 16.1281 8.45117 16.1281 12.3475C16.1281 19.6373 31.6026 19.1798 31.6026 31.7987C31.6026 42.9195 22.8951 46.9515 12.9407 46.9515C8.58691 46.9515 4.09738 45.9108 0 44.4126L2.3428 36.6804C5.857 38.3043 9.56224 39.8024 13.4636 39.8024C17.8224 39.8024 22.1108 37.5904 22.1108 32.7137C22.1108 24.5189 6.63625 25.8211 6.63625 13.725C6.63123 4.15771 14.821 0 23.5386 0C27.5002 0 31.5976 0.517829 35.3079 2.01601L33.1612 9.49688V9.49185Z" fill="black"/>
<path d="M36.7858 12.6795H43.0953L44.5885 5.79185L53.9546 2.73515L51.8079 12.6845H59.6105L58.2431 19.0644H50.4354L47.248 33.6893C47.0519 34.4685 46.8609 35.6399 46.8609 36.9471C46.8609 38.958 48.2283 40.1898 50.179 40.1898C51.7375 40.1898 53.3011 39.873 54.4071 39.4105L52.9089 46.1725C51.4107 46.4992 49.7215 46.9517 48.2283 46.9517C42.306 46.9517 38.1483 44.6089 38.1483 38.1738C38.1483 35.5695 38.6661 33.0357 39.2543 30.3661L41.7228 19.0593H35.4133L36.7808 12.6795H36.7858Z" fill="black"/>
<path d="M84.6624 26.6603C84.6624 22.3015 83.1693 18.6565 78.0262 18.6565C71.1335 18.6565 67.6847 26.2681 67.6847 32.3162C67.6847 36.7403 69.5046 40.1841 74.517 40.1841C81.2789 40.1841 84.6624 32.3815 84.6624 26.6603ZM93.7672 26.5949C93.7672 38.3692 85.6377 46.9511 73.8031 46.9511C64.3112 46.9511 58.585 41.0941 58.585 31.6676C58.585 20.4865 67.1719 11.8996 78.4233 11.8996C87.4577 11.8996 93.7722 17.3645 93.7722 26.5949H93.7672Z" fill="black"/>
<path d="M281.98 26.6603C281.98 22.3015 280.487 18.6565 275.349 18.6565C268.456 18.6565 265.008 26.2681 265.008 32.3162C265.008 36.7403 266.828 40.1841 271.835 40.1841C278.597 40.1841 281.98 32.3815 281.98 26.6603ZM291.085 26.5949C291.085 38.3692 282.956 46.9511 271.121 46.9511C261.624 46.9511 255.903 41.0941 255.903 31.6676C255.903 20.4865 264.49 11.8996 275.741 11.8996C284.781 11.8996 291.09 17.3645 291.09 26.5949H291.085Z" fill="black"/>
<path d="M100.856 17.1684C101.112 15.7356 101.374 14.2424 101.635 12.6789H109.961L108.784 18.9884H108.915C110.478 15.3434 114.767 11.8996 118.799 11.8996C119.905 11.8996 121.076 11.965 122.112 12.2264L120.292 20.7429C119.317 20.4212 118.08 20.2201 116.979 20.2201C110.8 20.2201 107.809 25.7503 106.703 31.1498L103.581 46.1719H94.8682L100.856 17.1684Z" fill="black"/>
<path d="M126.928 16.3846C127.185 15.0825 127.451 13.715 127.642 12.6743H135.772L134.992 17.1638H135.123C137.461 13.715 141.302 11.8951 145.399 11.8951C149.497 11.8951 153.463 14.2379 153.916 18.2699H154.047C156.259 13.9111 161.135 11.8951 165.816 11.8951C170.823 11.8951 175.117 15.9924 175.117 21.0652C175.117 24.0565 174.337 27.44 173.619 30.1749L170.104 46.1673H161.397L164.906 29.8431C165.358 27.8271 166.012 24.705 166.012 22.689C166.012 20.2155 164.127 18.657 161.915 18.657C155.872 18.657 154.373 25.6804 153.267 30.2353L149.824 46.1673H141.111L144.62 29.8431C145.073 27.8271 145.726 24.705 145.726 22.689C145.726 20.2155 143.836 18.657 141.629 18.657C135.716 18.657 134.083 25.7508 132.981 30.2353L129.533 46.1673H120.82L126.933 16.3846H126.928Z" fill="black"/>
<path d="M219.866 10.4018C216.357 8.12941 212.003 7.14905 207.252 7.14905C196.197 7.14905 189.239 15.8013 189.239 26.5299C189.239 33.8801 194.312 39.7974 202.054 39.7974C204.135 39.7974 205.503 39.7974 206.538 39.3399L209.077 27.3142H199.45L200.948 20.1652H219.353L214.15 44.9405C211.485 46.0465 206.413 46.9565 201.989 46.9565C188.656 46.9565 179.747 40.8431 179.747 26.7914C179.747 10.2108 190.606 0 206.996 0C212.069 0 217.403 0.718927 222.149 2.53384L219.871 10.4018H219.866Z" fill="black"/>
<path d="M245.089 26.1379C245.219 25.3586 245.29 24.6447 245.29 23.8604C245.29 20.2859 243.405 18.2699 239.76 18.2699C234.365 18.2699 232.027 21.5227 230.333 26.1379H245.094H245.089ZM229.162 32.1205C229.162 38.3043 232.475 40.5767 238.463 40.5767C242.037 40.5767 245.486 39.6668 248.739 38.1736L247.633 45.0663C244.254 46.107 240.549 46.9516 236.969 46.9516C227.347 46.9516 220.841 42.271 220.841 32.3166C220.841 22.3622 228.905 11.8951 239.895 11.8951C248.156 11.8951 253.615 16.1232 253.615 24.6447C253.615 27.1836 253.289 29.6521 252.771 32.1205H229.162Z" fill="black"/>
</svg>
